<?xml version="1.0" standalone="no"?>
<!DOCTYPE svg PUBLIC "-//W3C//DTD SVG 20010904//EN"
 "http://www.w3.org/TR/2001/REC-SVG-20010904/DTD/svg10.dtd">
<svg version="1.0" xmlns="http://www.w3.org/2000/svg"
 width="1910.000000pt" height="1068.000000pt" viewBox="0 0 1910.000000 1068.000000"
 preserveAspectRatio="xMidYMid meet">

<g transform="translate(0.000000,1068.000000) scale(0.100000,-0.100000)"
fill="#000000" stroke="none">
<path d="M820 9095 l0 -325 45 0 45 0 0 155 0 155 60 0 60 0 0 30 0 30 -60 0
-60 0 0 110 0 110 81 0 80 0 -3 28 -3 27 -122 3 -123 3 0 -326z"/>
<path d="M1820 9300 c0 -68 -1 -70 -25 -70 -20 0 -25 -5 -25 -25 0 -20 5 -25
24 -25 l25 0 3 -186 c3 -181 4 -186 27 -205 16 -13 39 -19 72 -19 48 0 49 1
49 30 0 26 -3 30 -29 30 -17 0 -31 6 -35 16 -3 9 -6 87 -6 175 l0 159 35 0
c31 0 35 3 35 25 0 22 -4 25 -35 25 l-35 0 0 70 0 70 -40 0 -40 0 0 -70z"/>
<path d="M1190 9223 c-58 -30 -70 -68 -70 -221 0 -193 22 -232 131 -232 68 0
103 23 119 78 19 70 15 82 -29 82 -39 0 -40 0 -43 -41 -4 -53 -31 -75 -68 -56
-23 12 -25 19 -28 90 l-3 77 91 0 90 0 0 53 c-1 120 -33 173 -110 182 -33 5
-55 1 -80 -12z m94 -59 c11 -10 16 -34 16 -70 l0 -54 -50 0 -50 0 0 54 c0 58
16 86 50 86 10 0 26 -7 34 -16z"/>
<path d="M1530 9227 c-37 -13 -64 -51 -74 -104 -5 -33 -5 -33 33 -33 36 0 39
2 45 35 8 43 38 62 72 46 21 -9 24 -17 24 -63 l0 -53 -55 -24 c-116 -50 -158
-154 -94 -234 30 -39 91 -38 129 3 l28 30 6 -30 c5 -26 10 -30 39 -30 l33 0
-4 193 c-3 105 -8 202 -13 214 -18 49 -103 74 -169 50z m83 -375 c-28 -20 -66
-11 -77 20 -13 37 8 81 52 111 l37 24 3 -71 c2 -59 0 -73 -15 -84z"/>
<path d="M2550 9229 c-14 -5 -35 -22 -47 -37 l-23 -27 0 33 c0 31 -2 32 -40
32 l-40 0 0 -230 0 -230 40 0 40 0 0 173 c0 196 4 207 73 207 l37 0 0 45 c0
48 -1 49 -40 34z"/>
<path d="M2720 9227 c-62 -22 -75 -60 -75 -222 0 -197 21 -235 130 -235 85 0
125 41 125 126 0 32 -2 34 -34 34 -32 0 -34 -2 -41 -46 -5 -33 -12 -47 -28
-53 -54 -20 -77 13 -77 110 l0 59 90 0 90 0 0 70 c0 91 -19 136 -64 155 -42
18 -69 18 -116 2z m84 -60 c13 -10 18 -28 19 -68 l2 -54 -50 0 -50 0 0 54 c1
40 6 57 20 67 23 17 36 18 59 1z"/>
<path d="M3053 9233 c-37 -7 -73 -59 -73 -104 0 -56 18 -85 99 -157 55 -49 71
-69 71 -91 0 -34 -17 -51 -50 -51 -29 0 -56 24 -62 55 -3 14 -11 19 -28 17
-14 -1 -29 -7 -34 -12 -14 -14 3 -60 34 -91 54 -54 176 -33 200 34 25 72 5
115 -95 209 -68 63 -80 92 -49 122 28 28 66 13 82 -33 8 -23 15 -28 31 -24 30
8 33 18 18 55 -25 60 -78 86 -144 71z"/>
<path d="M2040 9030 c0 -240 5 -260 72 -260 24 0 55 9 74 21 l34 21 0 -21 c0
-18 6 -21 40 -21 l40 0 0 230 0 230 -40 0 -40 0 0 -186 c0 -166 -2 -188 -17
-200 -22 -17 -55 -18 -71 -2 -8 8 -12 67 -12 200 l0 188 -40 0 -40 0 0 -200z"/>
<path d="M820 8030 c0 -19 7 -20 160 -20 153 0 160 1 160 20 0 19 -7 20 -160
20 -153 0 -160 -1 -160 -20z"/>
<path d="M1260 8030 c0 -19 7 -20 160 -20 153 0 160 1 160 20 0 19 -7 20 -160
20 -153 0 -160 -1 -160 -20z"/>
<path d="M1700 8030 c0 -19 7 -20 160 -20 153 0 160 1 160 20 0 19 -7 20 -160
20 -153 0 -160 -1 -160 -20z"/>
<path d="M3098 6868 c17 -17 16 -195 0 -201 -7 -3 10 -6 37 -6 39 0 46 2 33
10 -25 14 -26 169 -2 193 14 15 11 16 -32 16 -37 0 -45 -3 -36 -12z"/>
<path d="M3500 6865 c-14 -16 -5 -35 16 -35 15 0 20 35 5 44 -5 3 -14 -1 -21
-9z"/>
<path d="M3638 6867 c6 -7 10 -49 9 -97 -2 -78 -4 -85 -22 -85 -16 0 -21 8
-23 43 -2 24 2 50 9 58 9 11 8 14 -4 14 -21 0 -47 -38 -47 -70 0 -14 7 -35 15
-48 13 -18 24 -21 65 -19 28 2 53 6 57 10 3 4 1 7 -5 7 -8 0 -12 30 -12 100
l0 100 -26 0 c-20 0 -24 -3 -16 -13z"/>
<path d="M4493 6864 c-8 -21 13 -42 28 -27 13 13 5 43 -11 43 -6 0 -13 -7 -17
-16z"/>
<path d="M4660 6770 l0 -110 33 0 c21 0 27 3 19 9 -17 10 -12 103 6 109 9 3
12 -13 12 -57 0 -57 2 -61 23 -61 21 0 22 3 17 67 l-5 68 -32 -1 c-32 -2 -33
-1 -33 42 0 37 -3 44 -20 44 -19 0 -20 -7 -20 -110z"/>
<path d="M4888 6868 c17 -17 16 -195 0 -201 -7 -3 24 -6 70 -6 79 -1 82 0 82
22 -1 20 -2 20 -11 5 -6 -12 -22 -18 -44 -18 l-35 0 0 99 c0 70 4 101 13 104
6 3 -10 6 -37 6 -39 1 -47 -2 -38 -11z"/>
<path d="M5512 6864 c-41 -29 -28 -84 29 -116 57 -32 65 -78 14 -78 -13 0 -33
10 -45 22 l-20 22 0 -22 c0 -16 8 -23 34 -27 43 -9 73 1 87 27 17 32 2 65 -46
98 -50 34 -59 65 -22 80 13 5 16 9 7 9 -9 1 -26 -6 -38 -15z"/>
<path d="M6177 6874 c-15 -15 -7 -45 11 -42 9 2 17 12 17 22 0 20 -16 31 -28
20z"/>
<path d="M5587 6843 c9 -16 18 -30 20 -32 2 -2 3 10 3 27 0 25 -4 32 -20 32
-20 0 -20 -1 -3 -27z"/>
<path d="M4585 6824 c-18 -25 -20 -39 -15 -94 4 -53 8 -65 24 -68 10 -2 23 1
29 7 8 8 8 11 -1 11 -8 0 -12 18 -12 50 0 38 4 50 15 50 8 0 15 5 15 10 0 6
-6 10 -14 10 -8 0 -16 12 -18 26 l-3 26 -20 -28z"/>
<path d="M6265 6824 c-18 -25 -20 -39 -15 -94 4 -53 8 -65 24 -68 10 -2 23 1
29 7 8 8 8 11 -1 11 -8 0 -12 18 -12 49 0 41 3 50 21 54 18 5 25 -4 51 -61 31
-67 36 -69 53 -13 4 15 3 21 -3 17 -11 -7 -35 51 -26 65 3 5 -17 9 -45 9 -46
0 -50 2 -53 26 l-3 26 -20 -28z"/>
<path d="M12143 6839 c14 -8 17 -25 17 -99 0 -74 -3 -91 -17 -99 -14 -8 -5
-10 37 -10 42 0 51 2 38 10 -15 8 -18 25 -18 99 0 74 3 91 18 99 13 8 4 10
-38 10 -42 0 -51 -2 -37 -10z"/>
<path d="M12563 6834 c-8 -21 13 -42 28 -27 13 13 5 43 -11 43 -6 0 -13 -7
-17 -16z"/>
<path d="M12708 6843 c8 -3 12 -32 12 -94 0 -73 -3 -91 -16 -96 -9 -3 -20 0
-25 8 -14 23 -10 86 7 103 13 14 13 16 0 16 -21 0 -56 -48 -56 -79 0 -51 55
-94 76 -60 5 8 9 8 14 -1 5 -9 17 -10 36 -5 16 4 23 10 17 12 -9 3 -13 34 -13
104 l0 99 -32 -1 c-18 0 -27 -3 -20 -6z"/>
<path d="M13622 6828 c2 -12 10 -23 18 -23 22 0 19 39 -3 43 -15 3 -18 -1 -15
-20z"/>
<path d="M13795 6740 l0 -110 25 0 c24 0 25 2 23 63 -1 34 -2 83 -2 110 -1 42
-3 47 -23 47 -22 0 -23 -3 -23 -110z"/>
<path d="M14033 6843 c15 -4 17 -18 17 -103 0 -85 -2 -99 -17 -103 -10 -3 7
-5 37 -5 30 0 49 2 43 5 -8 3 -13 23 -13 49 0 44 0 44 35 44 35 0 35 0 35 -44
0 -34 -4 -46 -17 -49 -10 -3 7 -5 37 -5 30 0 49 2 43 5 -9 3 -13 34 -13 103 0
69 4 100 13 103 6 3 -13 5 -43 5 -30 0 -47 -2 -37 -5 13 -3 17 -15 17 -49 0
-44 0 -44 -35 -44 -35 0 -35 0 -35 44 0 26 5 46 13 49 6 3 -13 5 -43 5 -30 0
-47 -2 -37 -5z"/>
<path d="M14273 6834 c-7 -18 11 -39 26 -30 17 11 13 46 -4 46 -9 0 -18 -7
-22 -16z"/>
<path d="M14505 6740 l0 -110 25 0 c24 0 25 3 25 62 0 42 4 63 13 66 11 3 13
-10 10 -62 l-3 -66 34 0 c27 0 32 3 23 12 -7 7 -12 35 -12 64 0 60 -17 82 -49
64 -20 -10 -21 -8 -21 35 0 40 -2 45 -22 45 -22 0 -23 -3 -23 -110z"/>
<path d="M14756 6828 c-30 -42 -18 -68 52 -111 27 -18 42 -35 42 -47 0 -43
-70 -37 -94 8 l-15 27 -1 -35 c0 -35 0 -35 50 -38 55 -3 90 20 90 59 0 20 -42
67 -90 100 -16 10 -21 21 -17 32 9 24 46 21 74 -5 l23 -21 0 24 c0 22 -5 24
-49 27 -42 2 -52 -1 -65 -20z"/>
<path d="M15463 6834 c-7 -18 11 -39 26 -30 17 11 13 46 -4 46 -9 0 -18 -7
-22 -16z"/>
<path d="M4024 6818 c-21 -23 -23 -65 -8 -135 5 -24 37 -32 49 -13 3 6 1 10
-4 10 -6 0 -11 21 -11 50 0 38 4 50 15 50 8 0 15 5 15 10 0 6 -6 10 -14 10 -8
0 -16 9 -18 21 -3 21 -3 21 -24 -3z"/>
<path d="M13141 6824 c0 -6 -12 -23 -26 -38 -13 -14 -20 -26 -15 -26 6 0 10
-27 10 -60 0 -64 12 -80 48 -65 11 5 13 9 5 12 -20 7 -17 113 2 113 8 0 15 5
15 10 0 6 -6 10 -14 10 -8 0 -17 12 -19 28 -2 15 -5 22 -6 16z"/>
<path d="M13716 6795 c-21 -32 -24 -129 -4 -152 12 -15 48 -17 48 -3 0 6 -4
10 -10 10 -5 0 -10 23 -10 50 0 43 3 52 23 60 l22 9 -22 7 c-12 3 -23 16 -25
27 -3 20 -4 19 -22 -8z"/>
<path d="M15552 6790 c-13 -17 -18 -31 -12 -35 5 -3 10 -31 10 -61 0 -58 13
-73 48 -59 11 5 13 9 5 12 -8 3 -13 24 -13 58 0 45 3 53 21 58 18 5 25 -5 53
-66 31 -68 33 -70 45 -48 10 19 10 29 -5 59 -10 20 -17 45 -16 55 1 14 -8 17
-49 17 -42 0 -49 3 -49 20 0 27 -11 24 -38 -10z"/>
<path d="M3205 6730 c0 -68 1 -70 25 -70 24 0 25 2 23 62 -1 35 -2 66 -2 71
-1 4 -11 7 -23 7 -22 0 -23 -4 -23 -70z"/>
<path d="M3265 6791 c-3 -6 -1 -11 5 -11 8 0 11 -20 8 -60 -3 -58 -2 -60 22
-60 25 0 25 1 20 67 -4 60 -8 68 -27 71 -11 2 -24 -2 -28 -7z"/>
<path d="M3377 6782 c-21 -23 -22 -86 -1 -106 17 -18 60 -21 69 -6 3 6 -3 10
-15 10 -23 0 -43 39 -38 79 4 31 28 40 35 12 6 -23 18 -27 28 -11 10 16 -14
40 -40 40 -12 0 -29 -8 -38 -18z"/>
<path d="M3488 6788 c16 -16 16 -100 0 -116 -9 -9 -5 -12 17 -12 l30 0 -3 70
c-4 68 -4 70 -30 70 -20 0 -23 -3 -14 -12z"/>
<path d="M3737 6782 c-19 -21 -22 -73 -7 -103 7 -12 21 -19 40 -19 36 0 39 11
8 25 -13 6 -24 18 -26 28 -3 14 4 17 32 17 29 0 36 4 36 19 0 24 -26 51 -49
51 -10 0 -25 -8 -34 -18z m53 -17 c0 -18 -5 -25 -20 -25 -20 0 -28 28 -13 43
15 16 33 6 33 -18z"/>
<path d="M3848 6791 c10 -6 13 -26 10 -70 -3 -58 -2 -61 20 -61 20 0 22 4 22
61 0 44 3 60 13 57 17 -6 22 -99 5 -109 -8 -6 -2 -9 20 -9 32 0 32 0 32 51 0
76 -9 87 -77 88 -35 0 -53 -3 -45 -8z"/>
<path d="M4107 6793 c-15 -14 -6 -51 18 -73 26 -25 33 -50 13 -50 -6 0 -9 -3
-5 -6 3 -3 15 -3 26 1 33 10 28 59 -9 85 -31 22 -39 40 -18 40 6 0 20 -7 30
-17 17 -15 18 -15 18 3 0 14 -8 20 -33 21 -19 2 -37 0 -40 -4z"/>
<path d="M4297 6733 c13 -37 26 -70 28 -72 3 -2 9 9 15 24 8 22 7 36 -5 62 -9
18 -13 38 -10 43 4 6 -6 10 -23 10 l-30 0 25 -67z"/>
<path d="M4360 6773 c17 -57 33 -98 41 -107 14 -16 21 42 9 78 -6 20 -9 40 -5
46 4 6 -6 10 -24 10 -28 0 -29 -2 -21 -27z"/>
<path d="M4435 6790 c4 -6 11 -8 16 -5 14 9 11 15 -7 15 -8 0 -12 -5 -9 -10z"/>
<path d="M4485 6730 c0 -68 1 -70 25 -70 25 0 25 1 22 70 -3 64 -5 70 -25 70
-20 0 -22 -5 -22 -70z"/>
<path d="M5087 6782 c-23 -25 -22 -85 1 -105 43 -39 102 -6 102 55 0 56 -68
89 -103 50z m58 -52 c0 -44 -3 -55 -17 -58 -16 -3 -18 5 -18 58 0 53 2 61 18
58 14 -3 17 -14 17 -58z"/>
<path d="M5208 6788 c5 -7 18 -39 28 -70 10 -32 21 -58 25 -58 3 0 11 18 17
40 5 22 6 38 2 35 -10 -6 -31 51 -23 59 4 3 -8 6 -27 6 -25 0 -30 -3 -22 -12z"/>
<path d="M5288 6778 c3 -13 8 -25 12 -28 3 -3 12 -25 19 -49 7 -24 16 -40 20
-35 14 15 22 62 11 66 -6 2 -11 18 -13 36 -2 27 -6 32 -29 32 -22 0 -25 -3
-20 -22z"/>
<path d="M5366 6785 c4 -8 7 -15 9 -15 2 0 5 7 9 15 3 9 0 15 -9 15 -9 0 -12
-6 -9 -15z"/>
<path d="M5660 6780 c-24 -24 -26 -67 -4 -98 16 -23 58 -30 69 -12 3 6 -3 10
-13 10 -18 0 -32 18 -32 41 0 5 16 9 35 9 39 0 44 13 19 48 -19 27 -48 28 -74
2z m50 -15 c0 -16 -6 -25 -15 -25 -9 0 -15 9 -15 25 0 16 6 25 15 25 9 0 15
-9 15 -25z"/>
<path d="M5789 6730 c14 -38 29 -70 33 -70 3 0 11 14 17 30 5 17 6 30 1 30
-11 0 -31 60 -24 71 3 5 -8 9 -24 9 l-30 0 27 -70z"/>
<path d="M5856 6785 c4 -8 7 -15 9 -15 1 0 8 7 15 15 10 13 9 15 -8 15 -15 0
-20 -5 -16 -15z"/>
<path d="M5927 6782 c-19 -21 -22 -73 -7 -103 11 -20 70 -28 70 -9 0 6 -7 10
-15 10 -12 0 -35 28 -35 44 0 3 16 6 35 6 25 0 35 4 35 16 0 50 -51 72 -83 36z
m53 -17 c0 -18 -5 -25 -20 -25 -20 0 -28 28 -13 43 15 16 33 6 33 -18z"/>
<path d="M6045 6730 c0 -68 1 -70 25 -70 24 0 25 2 21 51 -4 58 11 84 32 55
13 -18 14 -18 21 -1 10 27 -10 42 -34 27 -12 -7 -20 -8 -20 -2 0 5 -10 10 -22
10 -22 0 -23 -4 -23 -70z"/>
<path d="M6165 6730 c0 -68 1 -70 25 -70 25 0 25 1 22 70 -3 64 -5 70 -25 70
-20 0 -22 -5 -22 -70z"/>
<path d="M6426 6785 c4 -8 10 -12 15 -9 14 8 10 24 -6 24 -9 0 -12 -6 -9 -15z"/>
<path d="M12255 6705 l0 -75 35 0 c26 0 31 3 22 12 -17 17 -15 93 3 108 20 17
28 -5 23 -70 -3 -48 -2 -50 22 -50 25 0 25 1 20 65 -6 77 -18 94 -55 77 -15
-7 -25 -8 -25 -2 0 6 -10 10 -22 10 -22 0 -23 -4 -23 -75z"/>
<path d="M12440 6760 c-42 -42 -17 -130 37 -130 30 0 36 12 11 24 -24 12 -40
59 -32 93 8 30 22 29 34 -3 11 -27 30 -24 30 6 0 34 -50 40 -80 10z"/>
<path d="M12548 6771 c10 -6 13 -27 10 -75 l-3 -66 35 1 c19 0 29 3 23 6 -9 3
-13 28 -13 74 l0 69 -32 0 c-22 0 -29 -3 -20 -9z"/>
<path d="M12820 6760 c-25 -25 -27 -91 -4 -114 17 -18 60 -21 69 -6 3 6 -3 10
-14 10 -17 0 -41 26 -41 44 0 3 18 6 40 6 33 0 40 3 40 20 0 23 -33 60 -55 60
-8 0 -24 -9 -35 -20z m53 -12 c7 -25 1 -38 -18 -38 -8 0 -16 4 -19 8 -8 14 5
52 19 52 7 0 15 -10 18 -22z"/>
<path d="M12941 6759 c6 -12 9 -45 7 -75 -5 -53 -4 -54 21 -54 25 0 26 1 25
64 -2 76 -7 86 -40 86 -22 0 -24 -2 -13 -21z"/>
<path d="M13007 6773 c-4 -3 -2 -12 4 -19 6 -7 9 -38 7 -69 -3 -53 -2 -55 22
-55 24 0 25 2 22 62 -2 35 -9 69 -14 76 -11 13 -31 16 -41 5z"/>
<path d="M13216 6764 c-23 -23 -20 -43 14 -74 31 -29 39 -50 18 -50 -6 0 -20
7 -30 17 -16 14 -18 14 -18 0 0 -20 56 -33 75 -17 25 21 18 57 -15 80 -31 22
-39 45 -17 53 8 4 9 6 0 6 -6 1 -19 -6 -27 -15z"/>
<path d="M13405 6723 c12 -32 26 -67 30 -78 7 -18 9 -17 21 13 13 28 12 35 -2
57 -9 14 -14 34 -11 45 4 17 0 20 -28 20 l-33 0 23 -57z"/>
<path d="M13468 6768 c5 -7 20 -42 33 -77 l23 -65 14 34 c10 24 10 35 2 40 -6
4 -12 23 -13 43 -2 35 -4 37 -36 37 -25 0 -31 -3 -23 -12z"/>
<path d="M13556 6765 c4 -8 7 -15 9 -15 1 0 8 7 15 15 10 13 9 15 -8 15 -15 0
-20 -5 -16 -15z"/>
<path d="M13608 6768 c16 -16 16 -125 0 -131 -7 -3 3 -6 22 -6 l35 -1 -3 75
-4 75 -31 0 c-24 0 -28 -3 -19 -12z"/>
<path d="M13862 6771 c-11 -7 -11 -9 2 -14 20 -8 23 -112 4 -120 -7 -3 3 -6
22 -6 l35 -1 -5 63 c-7 83 -21 102 -58 78z"/>
<path d="M14265 6705 l0 -75 35 0 c26 0 31 3 22 12 -7 7 -12 39 -12 75 0 59
-2 63 -22 63 -22 0 -23 -4 -23 -75z"/>
<path d="M14366 6764 c-21 -20 -21 -73 -1 -81 14 -5 14 -7 1 -22 -16 -18 -18
-92 -2 -103 16 -11 64 -10 87 2 21 12 26 55 7 66 -7 4 -28 10 -47 13 -38 7
-44 24 -9 29 34 5 58 31 58 64 0 15 5 28 11 28 5 0 7 5 4 10 -10 16 -92 12
-109 -6z m54 -45 c0 -28 -4 -39 -15 -39 -11 0 -15 11 -15 38 0 21 3 42 6 45
14 13 24 -6 24 -44z m28 -141 c-3 -7 -20 -13 -38 -13 -18 0 -35 6 -37 13 -3 8
8 12 37 12 29 0 40 -4 38 -12z"/>
<path d="M14925 6755 c-46 -45 -23 -125 35 -125 16 0 32 5 35 10 3 6 -2 10
-12 10 -22 0 -43 18 -43 37 0 8 13 13 35 13 30 0 35 3 35 23 0 25 -28 57 -49
57 -6 0 -23 -11 -36 -25z m53 -18 c3 -22 -1 -27 -17 -27 -21 0 -26 15 -15 45
9 23 29 13 32 -18z"/>
<path d="M15030 6777 c0 -2 8 -21 18 -43 10 -21 25 -55 33 -74 l16 -34 12 23
c11 19 10 30 -4 62 -10 21 -15 45 -12 53 5 13 -1 16 -28 16 -19 0 -35 -1 -35
-3z"/>
<path d="M15136 6765 c4 -8 7 -15 9 -15 1 0 8 7 15 15 10 13 9 15 -8 15 -15 0
-20 -5 -16 -15z"/>
<path d="M15210 6760 c-25 -25 -27 -91 -4 -114 17 -17 59 -21 69 -7 3 5 -4 11
-16 13 -12 2 -26 13 -30 26 -8 20 -6 22 31 22 42 0 47 8 29 43 -22 42 -48 48
-79 17z m50 -20 c0 -19 -5 -30 -14 -30 -20 0 -26 12 -19 38 8 33 33 27 33 -8z"/>
<path d="M15329 6761 c15 -27 14 -104 -1 -119 -9 -9 -4 -12 23 -12 l34 0 -5
72 c-5 71 -6 73 -33 76 -26 3 -27 2 -18 -17z"/>
<path d="M15403 6773 c-10 -3 -10 -9 0 -24 16 -26 27 -24 27 6 0 25 -4 28 -27
18z"/>
<path d="M15455 6705 l0 -75 35 0 c26 0 31 3 22 12 -7 7 -12 39 -12 75 0 59
-2 63 -22 63 -22 0 -23 -4 -23 -75z"/>
<path d="M15732 6766 c13 -14 28 -12 28 5 0 5 -9 9 -20 9 -17 0 -19 -2 -8 -14z"/>
<path d="M13260 6761 c0 -6 5 -13 10 -16 6 -3 10 1 10 9 0 9 -4 16 -10 16 -5
0 -10 -4 -10 -9z"/>
<path d="M4100 6679 c0 -11 4 -18 10 -14 5 3 7 12 3 20 -7 21 -13 19 -13 -6z"/>
<path d="M6330 6611 c0 -28 19 -36 38 -16 10 10 12 15 6 11 -7 -3 -14 1 -18 9
-8 22 -26 18 -26 -4z"/>
<path d="M15630 6580 c0 -24 27 -37 43 -21 8 8 8 11 -1 11 -7 0 -12 7 -12 15
0 8 -7 15 -15 15 -8 0 -15 -9 -15 -20z"/>
<path d="M13828 6183 c6 -2 18 -2 25 0 6 3 1 5 -13 5 -14 0 -19 -2 -12 -5z"/>
<path d="M5128 6173 c6 -2 18 -2 25 0 6 3 1 5 -13 5 -14 0 -19 -2 -12 -5z"/>
<path d="M9788 5923 c7 -3 16 -2 19 1 4 3 -2 6 -13 5 -11 0 -14 -3 -6 -6z"/>
<path d="M1765 5766 c-16 -12 -20 -29 -24 -98 -2 -63 -8 -90 -23 -111 l-20
-28 21 -23 c17 -19 21 -35 21 -97 0 -51 5 -81 16 -97 l15 -22 513 0 c385 0
515 3 524 12 9 9 12 75 12 235 l0 223 -26 10 c-15 6 -222 10 -518 10 -408 0
-495 -2 -511 -14z m55 -116 c0 -27 -4 -50 -10 -50 -5 0 -10 23 -10 50 0 28 5
50 10 50 6 0 10 -22 10 -50z m36 35 c6 -14 8 -13 19 1 8 12 14 14 19 6 5 -9
12 -8 26 1 32 20 54 -2 58 -57 3 -47 3 -47 -25 -40 -15 4 -33 11 -40 16 -7 6
-13 4 -16 -4 -3 -11 -8 -11 -26 0 -12 7 -21 8 -21 2 0 -5 -4 -10 -10 -10 -5 0
-10 23 -10 50 0 48 14 67 26 35z m154 -25 c0 -22 5 -40 10 -40 6 0 10 17 10
39 0 34 3 39 25 39 23 0 25 -4 25 -49 0 -27 -4 -49 -10 -49 -5 0 -10 5 -10 10
0 6 -7 6 -19 -1 -33 -21 -51 -4 -51 46 0 25 5 45 10 45 6 0 10 -18 10 -40z
m176 25 c6 -14 8 -13 19 2 17 23 30 11 16 -15 -6 -12 -11 -32 -11 -46 0 -16
-6 -26 -15 -26 -10 0 -15 10 -15 29 0 17 -4 32 -9 35 -14 9 -22 -24 -11 -45 9
-15 7 -19 -5 -19 -9 0 -20 10 -25 23 l-9 22 0 -22 c-1 -14 -7 -23 -16 -23 -11
0 -15 11 -15 43 0 24 3 47 7 50 13 14 84 7 89 -8z m-286 -260 l0 -65 -55 0
-55 0 0 65 0 65 55 0 55 0 0 -65z m80 55 c0 -5 -4 -10 -10 -10 -5 0 -10 -18
-10 -40 0 -22 -4 -40 -10 -40 -5 0 -10 18 -10 40 0 22 -4 40 -10 40 -5 0 -10
5 -10 10 0 6 14 10 30 10 17 0 30 -4 30 -10z m102 -15 c19 0 23 -6 26 -37 3
-37 2 -38 -30 -38 -19 0 -39 5 -46 12 -9 9 -12 9 -12 0 0 -24 -39 -12 -46 14
-9 33 18 63 39 45 12 -9 16 -7 21 11 5 19 8 20 16 8 5 -8 20 -15 32 -15z m58
-25 c0 -27 -4 -50 -10 -50 -11 0 -14 83 -3 93 12 12 13 8 13 -43z m47 -27 c-2
-16 -4 -3 -4 27 0 30 2 43 4 28 2 -16 2 -40 0 -55z m223 49 c14 9 22 9 33 -1
11 -9 17 -9 22 -1 4 7 16 9 27 7 12 -3 22 1 25 10 6 14 7 14 18 0 6 -8 19 -15
29 -14 11 1 21 -4 23 -11 3 -7 -1 -10 -11 -6 -9 3 -16 1 -16 -5 0 -6 7 -11 15
-11 8 0 15 -9 15 -20 0 -16 -7 -20 -35 -20 -32 0 -35 2 -37 33 l-1 32 -4 -32
c-2 -18 -8 -33 -14 -33 -5 0 -10 15 -11 33 l-1 32 -4 -31 -4 -30 -65 0 c-46 1
-67 5 -74 16 -8 13 -10 12 -10 -3 0 -15 -7 -17 -45 -15 -39 3 -45 6 -45 26 0
12 -4 22 -10 22 -5 0 -10 -11 -10 -25 0 -14 -4 -25 -10 -25 -5 0 -10 16 -10
35 0 39 21 55 45 35 11 -9 19 -9 28 -2 15 13 57 5 57 -11 0 -5 12 3 28 18 26
26 27 27 30 7 3 -18 6 -20 22 -10z m294 11 c2 -10 4 -31 3 -48 -2 -23 -7 -31
-24 -33 -13 -2 -23 2 -23 8 0 7 6 10 14 7 10 -4 14 3 13 29 -1 24 -5 33 -14
30 -14 -6 -18 6 -6 17 12 13 32 7 37 -10z m56 -39 c0 -24 -4 -44 -10 -44 -5 0
-10 13 -10 29 0 16 -6 31 -12 34 -10 3 -10 7 1 20 20 25 31 11 31 -39z"/>
<path d="M1926 5663 c-9 -22 10 -41 25 -26 13 13 5 43 -10 43 -5 0 -12 -8 -15
-17z"/>
<path d="M2120 5670 c0 -5 5 -10 10 -10 6 0 10 5 10 10 0 6 -4 10 -10 10 -5 0
-10 -4 -10 -10z"/>
<path d="M1995 5437 c-4 -10 -5 -21 -1 -24 10 -10 18 4 13 24 -4 17 -4 17 -12
0z"/>
<path d="M2050 5433 c0 -15 2 -15 24 -7 22 9 20 20 -4 20 -11 0 -20 -6 -20
-13z"/>
<path d="M2280 5431 c0 -27 15 -34 31 -15 10 13 10 17 -2 25 -22 13 -29 11
-29 -10z"/>
<path d="M2360 5430 c0 -19 3 -21 12 -12 9 9 9 15 0 24 -9 9 -12 7 -12 -12z"/>
<path d="M2541 5429 c-1 -19 25 -33 34 -19 4 6 0 10 -9 10 -8 0 -17 6 -19 13
-4 7 -6 6 -6 -4z"/>
<path d="M2414 5411 c3 -5 15 -7 26 -4 28 7 25 13 -6 13 -14 0 -23 -4 -20 -9z"/>
<path d="M9788 5303 c7 -3 16 -2 19 1 4 3 -2 6 -13 5 -11 0 -14 -3 -6 -6z"/>
<path d="M830 4799 c0 -5 9 -9 20 -9 11 0 20 2 20 4 0 2 -9 6 -20 9 -11 3 -20
1 -20 -4z"/>
<path d="M13036 4793 c-441 -3 -480 -5 -492 -21 -8 -11 -13 -47 -14 -96 0 -72
-3 -83 -25 -106 -25 -26 -25 -27 -7 -51 14 -18 21 -47 24 -112 3 -48 11 -94
18 -102 11 -13 84 -15 529 -15 389 0 520 3 529 12 19 19 17 462 -2 477 -20 17
-32 17 -560 14z m-268 -89 c12 -8 22 -10 22 -5 0 6 5 11 10 11 6 0 10 -15 10
-34 0 -19 5 -38 10 -41 6 -4 10 10 10 34 0 30 4 41 16 41 12 0 14 -9 12 -41
-4 -53 -28 -71 -57 -45 -21 19 -21 19 -21 -1 0 -16 -5 -19 -30 -15 -17 2 -37
13 -44 24 -13 18 -14 18 -20 -4 -6 -23 -6 -23 -22 -3 -11 14 -18 16 -21 8 -3
-7 -16 -13 -29 -13 -22 0 -24 4 -24 45 0 43 1 45 29 45 16 0 32 -6 35 -12 5
-10 7 -10 12 0 8 17 24 15 24 -3 0 -12 4 -11 20 5 24 24 29 24 58 4z m235 -8
c6 -8 10 -7 14 2 2 6 11 12 19 12 12 0 12 -4 -1 -30 -8 -16 -15 -36 -15 -45 0
-8 -4 -15 -10 -15 -5 0 -10 8 -10 18 0 10 -6 26 -13 36 -13 18 -14 18 -20 2
-4 -10 -2 -26 3 -36 14 -27 -5 -35 -23 -10 -14 20 -15 20 -19 2 -4 -15 -12
-19 -32 -15 -23 5 -26 10 -26 49 0 39 2 43 28 47 38 6 95 -4 105 -17z m-305
-263 l3 -63 -61 0 -60 0 0 58 c0 32 3 62 7 66 4 4 30 6 58 4 l50 -3 3 -62z
m74 55 c-7 -7 -12 -29 -12 -50 0 -21 -4 -38 -10 -38 -5 0 -10 18 -10 40 0 22
-4 40 -10 40 -5 0 -10 5 -10 10 0 6 14 10 32 10 25 0 29 -3 20 -12z m88 -4 c0
-12 6 -15 22 -11 12 4 28 1 35 -5 10 -8 13 -7 13 5 0 9 5 19 10 22 6 4 10 -13
10 -44 l0 -51 -55 0 -55 0 0 50 c0 28 5 50 10 50 6 0 10 -7 10 -16z m150 -34
c0 -27 -4 -50 -10 -50 -5 0 -10 23 -10 50 0 28 5 50 10 50 6 0 10 -22 10 -50z
m144 36 c-9 -23 12 -27 34 -6 27 25 32 25 32 -1 0 -18 2 -19 15 -9 12 10 18
10 30 0 22 -18 18 -40 -6 -40 -11 0 -18 -4 -14 -10 3 -5 13 -6 22 -3 10 4 14
2 10 -4 -9 -14 -177 -14 -194 0 -9 6 -13 6 -13 -2 0 -27 -20 -8 -22 22 l-1 32
-4 -32 c-6 -43 -23 -42 -23 1 0 39 27 57 46 31 10 -14 13 -14 24 0 7 9 21 13
31 10 13 -4 19 -1 19 9 0 9 4 16 10 16 5 0 7 -6 4 -14z m218 2 c3 -7 15 -13
28 -13 13 0 25 -6 28 -14 3 -10 0 -12 -12 -8 -9 4 -16 2 -16 -3 0 -6 7 -10 15
-10 8 0 15 -9 15 -20 0 -18 -7 -20 -55 -20 l-55 0 -2 33 -1 32 -4 -32 c-6 -47
-23 -41 -23 8 0 41 1 41 30 36 22 -5 30 -3 30 8 0 18 17 20 22 3z m176 -16 c2
-13 -4 -32 -13 -42 -15 -17 -15 -19 2 -23 12 -3 9 -5 -9 -6 -31 -1 -34 5 -13
33 20 26 19 50 0 42 -15 -6 -20 5 -8 18 14 13 38 0 41 -22z m-728 -6 c16 -20
9 -60 -12 -64 -22 -4 -38 27 -27 56 10 26 22 28 39 8z m635 4 c3 -5 1 -10 -4
-10 -6 0 -11 5 -11 10 0 6 2 10 4 10 3 0 8 -4 11 -10z"/>
<path d="M12727 4694 c-9 -9 -9 -49 -1 -57 10 -10 36 22 32 40 -3 18 -20 27
-31 17z"/>
<path d="M12930 4685 c0 -8 5 -15 10 -15 6 0 10 7 10 15 0 8 -4 15 -10 15 -5
0 -10 -7 -10 -15z"/>
<path d="M12861 4430 c1 -17 3 -19 6 -7 2 9 11 17 19 17 8 0 14 4 14 8 0 4 -9
8 -20 8 -15 0 -20 -7 -19 -26z"/>
<path d="M13100 4435 c0 -27 1 -28 24 -19 28 11 13 44 -20 44 -2 0 -4 -11 -4
-25z"/>
<path d="M13185 4447 c-4 -10 -5 -21 -1 -24 10 -10 18 4 13 24 -4 17 -4 17
-12 0z"/>
<path d="M13370 4441 c0 -10 9 -21 20 -24 11 -3 20 -3 20 -1 0 2 -9 13 -20 24
-19 19 -20 19 -20 1z"/>
<path d="M12795 4447 c-4 -10 -5 -21 -1 -24 10 -10 18 4 13 24 -4 17 -4 17
-12 0z"/>
<path d="M830 4219 c0 -5 9 -9 20 -9 11 0 20 2 20 4 0 2 -9 6 -20 9 -11 3 -20
1 -20 -4z"/>
<path d="M9812 2435 c0 -16 2 -22 5 -12 2 9 2 23 0 30 -3 6 -5 -1 -5 -18z"/>
<path d="M4460 1717 c0 -45 1 -47 28 -46 22 1 23 3 6 6 -18 3 -22 11 -22 39 0
20 -3 38 -6 41 -3 4 -6 -15 -6 -40z"/>
<path d="M8310 1715 c0 -27 3 -46 6 -42 3 3 6 22 6 42 0 20 -3 39 -6 42 -3 4
-6 -15 -6 -42z"/>
<path d="M6715 1720 c-3 -5 -1 -10 4 -10 6 0 11 5 11 10 0 6 -2 10 -4 10 -3 0
-8 -4 -11 -10z"/>
<path d="M1778 1713 c6 -2 18 -2 25 0 6 3 1 5 -13 5 -14 0 -19 -2 -12 -5z"/>
<path d="M2828 1713 c6 -2 18 -2 25 0 6 3 1 5 -13 5 -14 0 -19 -2 -12 -5z"/>
<path d="M3148 1713 c6 -2 18 -2 25 0 6 3 1 5 -13 5 -14 0 -19 -2 -12 -5z"/>
<path d="M5708 1713 c6 -2 18 -2 25 0 6 3 1 5 -13 5 -14 0 -19 -2 -12 -5z"/>
<path d="M8248 1713 c6 -2 18 -2 25 0 6 3 1 5 -13 5 -14 0 -19 -2 -12 -5z"/>
<path d="M2758 1703 c6 -2 18 -2 25 0 6 3 1 5 -13 5 -14 0 -19 -2 -12 -5z"/>
<path d="M3078 1703 c6 -2 18 -2 25 0 6 3 1 5 -13 5 -14 0 -19 -2 -12 -5z"/>
<path d="M4078 1703 c7 -3 16 -2 19 1 4 3 -2 6 -13 5 -11 0 -14 -3 -6 -6z"/>
<path d="M4198 1703 c7 -3 16 -2 19 1 4 3 -2 6 -13 5 -11 0 -14 -3 -6 -6z"/>
<path d="M4338 1703 c7 -3 16 -2 19 1 4 3 -2 6 -13 5 -11 0 -14 -3 -6 -6z"/>
<path d="M5638 1703 c6 -2 18 -2 25 0 6 3 1 5 -13 5 -14 0 -19 -2 -12 -5z"/>
<path d="M1586 1678 c3 -4 16 -7 29 -6 30 3 23 11 -9 13 -14 0 -22 -3 -20 -7z"/>
<path d="M1668 1678 c5 -5 16 -8 23 -6 8 3 3 7 -10 11 -17 4 -21 3 -13 -5z"/>
<path d="M5350 1680 c-9 -6 -10 -10 -3 -10 6 0 15 5 18 10 8 12 4 12 -15 0z"/>
<path d="M8168 1678 c5 -5 16 -8 23 -6 8 3 3 7 -10 11 -17 4 -21 3 -13 -5z"/>
<path d="M2898 1673 c6 -2 18 -2 25 0 6 3 1 5 -13 5 -14 0 -19 -2 -12 -5z"/>
<path d="M3228 1673 c6 -2 18 -2 25 0 6 3 1 5 -13 5 -14 0 -19 -2 -12 -5z"/>
<path d="M3998 1673 c7 -3 16 -2 19 1 4 3 -2 6 -13 5 -11 0 -14 -3 -6 -6z"/>
<path d="M4258 1673 c6 -2 18 -2 25 0 6 3 1 5 -13 5 -14 0 -19 -2 -12 -5z"/>
<path d="M4408 1673 c7 -3 16 -2 19 1 4 3 -2 6 -13 5 -11 0 -14 -3 -6 -6z"/>
<path d="M5788 1673 c6 -2 18 -2 25 0 6 3 1 5 -13 5 -14 0 -19 -2 -12 -5z"/>
<path d="M6568 1673 c7 -3 16 -2 19 1 4 3 -2 6 -13 5 -11 0 -14 -3 -6 -6z"/>
<path d="M7933 1673 c9 -2 23 -2 30 0 6 3 -1 5 -18 5 -16 0 -22 -2 -12 -5z"/>
<path d="M14313 1535 c-1 -27 2 -41 4 -30 3 11 10 23 17 27 8 6 8 8 -1 8 -6 0
-14 10 -16 23 -2 12 -4 0 -4 -28z"/>
<path d="M17233 1535 c0 -27 2 -38 4 -22 2 15 2 37 0 50 -2 12 -4 0 -4 -28z"/>
<path d="M10530 1561 c0 -10 29 -36 34 -30 1 2 -6 12 -16 22 -10 9 -18 13 -18
8z"/>
<path d="M17508 1538 c5 -5 16 -8 23 -6 8 3 3 7 -10 11 -17 4 -21 3 -13 -5z"/>
<path d="M10708 1533 c7 -3 16 -2 19 1 4 3 -2 6 -13 5 -11 0 -14 -3 -6 -6z"/>
<path d="M11018 1533 c6 -2 18 -2 25 0 6 3 1 5 -13 5 -14 0 -19 -2 -12 -5z"/>
<path d="M11103 1533 c9 -2 23 -2 30 0 6 3 -1 5 -18 5 -16 0 -22 -2 -12 -5z"/>
<path d="M12568 1533 c6 -2 18 -2 25 0 6 3 1 5 -13 5 -14 0 -19 -2 -12 -5z"/>
<path d="M13908 1533 c6 -2 18 -2 25 0 6 3 1 5 -13 5 -14 0 -19 -2 -12 -5z"/>
<path d="M14248 1533 c6 -2 18 -2 25 0 6 3 1 5 -13 5 -14 0 -19 -2 -12 -5z"/>
<path d="M15423 1533 c9 -2 23 -2 30 0 6 3 -1 5 -18 5 -16 0 -22 -2 -12 -5z"/>
<path d="M15568 1533 c6 -2 18 -2 25 0 6 3 1 5 -13 5 -14 0 -19 -2 -12 -5z"/>
<path d="M15908 1533 c6 -2 18 -2 25 0 6 3 1 5 -13 5 -14 0 -19 -2 -12 -5z"/>
<path d="M15988 1533 c6 -2 18 -2 25 0 6 3 1 5 -13 5 -14 0 -19 -2 -12 -5z"/>
<path d="M17358 1533 c6 -2 18 -2 25 0 6 3 1 5 -13 5 -14 0 -19 -2 -12 -5z"/>
<path d="M17588 1533 c6 -2 18 -2 25 0 6 3 1 5 -13 5 -14 0 -19 -2 -12 -5z"/>
<path d="M10948 1523 c6 -2 18 -2 25 0 6 3 1 5 -13 5 -14 0 -19 -2 -12 -5z"/>
<path d="M15498 1523 c6 -2 18 -2 25 0 6 3 1 5 -13 5 -14 0 -19 -2 -12 -5z"/>
<path d="M15838 1523 c6 -2 18 -2 25 0 6 3 1 5 -13 5 -14 0 -19 -2 -12 -5z"/>
<path d="M17158 1523 c6 -2 18 -2 25 0 6 3 1 5 -13 5 -14 0 -19 -2 -12 -5z"/>
<path d="M17288 1523 c6 -2 18 -2 25 0 6 3 1 5 -13 5 -14 0 -19 -2 -12 -5z"/>
<path d="M17438 1523 c6 -2 18 -2 25 0 6 3 1 5 -13 5 -14 0 -19 -2 -12 -5z"/>
</g>
</svg>
